# xmcd
#
# Track frame offsets: 
#        150
#        12506
#        33445
#        42836
#        64465
#        74981
#        99751
#        115318
#        148799
#        165031
#        179388
#        188903
#        196417
#        202742
#        237380
#        248748
#        259396
#
# Disc length: 3744 seconds
#
# Revision: 6
# Processed by: cddbd v1.5.2PL0 Copyright (c) Steve Scherf et al.
# Submitted via: ExactAudioCopy v1.4
#
DISCID=f60e9e11
DTITLE=Barbara Bonney - Fairest Isle
DYEAR=1998
DGENRE=Vocal
TTITLE0=John Dowland - Come Again
TTITLE1=John Dowland - If My Complaints
TTITLE2=John Dowland - Away With These Self-Loving Lads
TTITLE3=John Dowland - Flow My Tears
TTITLE4=Thomas Campion - Never Weather-Beaten Saile
TTITLE5=Thomas Campion - The Sypres Curten Of The Night
TTITLE6=Thomas Morley - It Was A Lover And His Lasse
TTITLE7=William Byrd - O Lord, How Vain Are All Our Frail Delights
TTITLE8=John Jenkins - Fantasy No. 9
TTITLE9=William Byrd - Though Amaryllis Dance In Green
TTITLE10=Henry Purcell - If Music Be The Food Of Love
TTITLE11=Henry Purcell - Air From Abdelazer
TTITLE12=Henry Purcell - Air From Abdelazer (2)
TTITLE13=Henry Purcell - The Plaint: O, Let Me Weep
TTITLE14=Henry Purcell - Fairest Isle
TTITLE15=Henry Purcell - She Loves And She Confesses Too
TTITLE16=Henry Purcell - Thy Hand, Belinda ... When I Am Laid In Earth
EXTD=Jacob Heringman lute 1-7\nPhantasm viol quartet 8-10:\nWendy Gill
EXTD=espie, Laurence Drefus,\nMarkku Luolajan-Mikkola, Jonathan Manson
EXTD=\nThe Academy of Ancient Music  11-17\nChristopher Hogwood.
EXTT0=
EXTT1=
EXTT2=
EXTT3=
EXTT4=
EXTT5=
EXTT6=
EXTT7=
EXTT8=
EXTT9=
EXTT10=
EXTT11=
EXTT12=
EXTT13=
EXTT14=
EXTT15=
EXTT16=
PLAYORDER=
